<?xml version="1.0" standalone="no"?>
<!DOCTYPE svg PUBLIC "-//W3C//DTD SVG 20010904//EN"
 "http://www.w3.org/TR/2001/REC-SVG-20010904/DTD/svg10.dtd">
<svg version="1.0" xmlns="http://www.w3.org/2000/svg"
 width="1024.000000pt" height="1024.000000pt" viewBox="0 0 1024.000000 1024.000000"
 preserveAspectRatio="xMidYMid meet">
<metadata>
Created by potrace 1.14, written by Peter Selinger 2001-2017
</metadata>
<g transform="translate(0.000000,1024.000000) scale(0.100000,-0.100000)"
fill="#000000" stroke="none">
<path d="M4610 9261 c0 -5 5 -13 10 -16 6 -3 10 -2 10 4 0 5 -4 13 -10 16 -5
3 -10 2 -10 -4z"/>
<path d="M4680 9226 c0 -2 9 -6 20 -9 11 -3 18 -1 14 4 -5 9 -34 13 -34 5z"/>
<path d="M4743 9202 c-29 -4 -31 -38 -2 -45 11 -3 23 -15 26 -27 3 -13 11 -19
19 -16 8 3 14 1 14 -4 0 -6 4 -10 9 -10 5 0 2 18 -5 41 -8 22 -12 44 -9 49 6
10 -23 17 -52 12z"/>
<path d="M4855 9190 c-3 -5 -1 -10 4 -10 6 0 11 5 11 10 0 6 -2 10 -4 10 -3 0
-8 -4 -11 -10z"/>
<path d="M3889 9107 c-21 -16 -33 -53 -20 -61 6 -4 7 -14 4 -22 -5 -13 -2 -14
13 -6 10 6 27 13 37 16 20 6 24 55 5 74 -15 15 -19 15 -39 -1z"/>
<path d="M4824 9105 c3 -19 6 -21 39 -29 19 -4 26 -3 22 3 -4 7 0 8 10 4 12
-4 13 -8 5 -13 -14 -8 -5 -30 11 -30 25 0 2 46 -31 62 -44 21 -59 22 -56 3z"/>
<path d="M5631 9060 c0 -33 1 -34 11 -12 8 17 8 26 0 34 -9 9 -12 4 -11 -22z"/>
<path d="M5855 9084 c31 -9 42 -23 25 -34 -24 -15 -43 -12 -36 6 4 10 1 14 -6
12 -31 -11 -8 -39 34 -43 3 0 9 -3 13 -7 10 -10 65 25 65 41 0 8 -3 11 -7 8
-3 -4 -11 -3 -17 2 -6 5 -29 12 -51 15 -22 3 -31 3 -20 0z"/>
<path d="M4084 9045 c-4 -8 -12 -15 -20 -15 -8 0 -14 -4 -14 -10 0 -5 -13 -10
-29 -10 -38 0 -47 -14 -18 -27 16 -7 29 -8 41 -1 10 6 33 8 52 6 19 -2 34 0
34 4 0 4 5 8 11 8 17 0 80 46 72 53 -3 4 -33 7 -65 7 -43 0 -60 -4 -64 -15z"/>
<path d="M5670 9046 c0 -9 5 -16 10 -16 6 0 10 4 10 9 0 6 -4 13 -10 16 -5 3
-10 -1 -10 -9z"/>
<path d="M5747 9043 c-22 -4 -28 -9 -25 -25 2 -12 8 -23 14 -25 14 -5 46 26
39 37 -3 5 3 11 12 13 22 6 -1 6 -40 0z"/>
<path d="M5985 9040 c-3 -5 -3 -33 1 -62 5 -39 9 -48 15 -33 4 11 8 32 8 47 1
14 6 28 13 30 15 5 1 28 -17 28 -8 0 -17 -4 -20 -10z"/>
<path d="M6080 8980 c0 -6 11 -15 25 -20 19 -7 25 -17 25 -41 0 -38 -27 -86
-53 -93 -14 -3 -17 -10 -12 -28 11 -34 25 -48 50 -48 47 0 67 -65 41 -131 -9
-23 -14 -44 -11 -47 8 -8 45 29 45 45 0 9 6 12 19 8 15 -4 20 1 25 26 9 45 -2
77 -27 81 -35 5 -44 49 -19 86 24 32 26 82 4 82 -7 0 -10 5 -6 12 5 8 2 9 -9
5 -13 -5 -17 -1 -17 18 0 15 -6 25 -14 25 -7 0 -19 7 -26 15 -14 17 -40 20
-40 5z m74 -152 c-7 -11 -32 -10 -39 2 -4 6 -1 17 5 26 11 12 14 12 25 -3 7
-10 11 -21 9 -25z"/>
<path d="M4967 8963 c-10 -9 -9 -23 1 -23 5 0 9 7 9 15 0 17 -1 18 -10 8z"/>
<path d="M5866 8961 c-8 -12 12 -73 26 -83 19 -12 28 -10 28 7 0 8 -4 15 -10
15 -5 0 -12 16 -16 35 -6 34 -17 44 -28 26z"/>
<path d="M3925 8950 c-3 -5 -2 -10 4 -10 6 0 8 -12 4 -32 l-6 -32 29 28 c28
26 28 27 10 41 -23 18 -33 19 -41 5z"/>
<path d="M4240 8935 c0 -41 41 -72 90 -68 48 4 83 20 75 34 -4 5 -15 9 -26 9
-10 0 -19 5 -19 11 0 7 -9 9 -24 5 -16 -4 -29 0 -41 14 -26 29 -55 26 -55 -5z"/>
<path d="M5360 8950 c0 -5 5 -10 11 -10 5 0 7 5 4 10 -3 6 -8 10 -11 10 -2 0
-4 -4 -4 -10z"/>
<path d="M6035 8929 c-4 -6 -5 -11 -4 -12 2 -1 14 -8 27 -15 25 -14 28 -6 8
21 -15 20 -22 21 -31 6z"/>
<path d="M3877 8876 c-3 -8 4 -18 19 -25 29 -13 30 -11 5 18 -14 16 -20 18
-24 7z"/>
<path d="M4475 8856 c-22 -18 -33 -21 -43 -14 -9 8 -17 6 -30 -6 -21 -18 -102
-23 -102 -5 0 17 -17 1 -23 -21 -4 -15 2 -24 24 -36 17 -9 29 -22 28 -32 -3
-37 1 -40 59 -41 77 -1 100 -5 114 -19 16 -16 4 -25 -51 -42 -24 -8 -38 -16
-32 -18 7 -2 25 1 41 8 31 13 50 7 50 -15 0 -7 7 -15 15 -19 12 -4 13 -2 6 12
-13 24 10 87 31 86 9 -1 21 9 26 21 10 21 7 25 -21 36 -18 8 -43 12 -57 10
-24 -3 -24 -2 10 35 19 21 39 42 44 46 15 10 -13 38 -38 38 -11 0 -34 -11 -51
-24z"/>
<path d="M5201 8824 c0 -11 3 -14 6 -6 3 7 2 16 -1 19 -3 4 -6 -2 -5 -13z"/>
<path d="M5600 8810 c0 -5 5 -10 11 -10 5 0 7 5 4 10 -3 6 -8 10 -11 10 -2 0
-4 -4 -4 -10z"/>
<path d="M5146 8761 c-4 -7 -5 -15 -2 -18 9 -9 19 4 14 18 -4 11 -6 11 -12 0z"/>
<path d="M6747 8710 c-12 -8 -15 -18 -11 -36 4 -14 2 -24 -2 -22 -5 1 -19 -2
-32 -6 -17 -6 -21 -12 -16 -24 3 -10 9 -53 11 -97 3 -64 11 -93 35 -143 18
-35 44 -74 60 -87 17 -14 28 -34 28 -48 0 -14 7 -43 14 -65 27 -76 23 -165
-10 -240 -8 -18 -12 -37 -9 -42 8 -13 -20 -66 -44 -82 -10 -7 -35 -33 -55 -57
-34 -41 -36 -45 -21 -65 8 -11 25 -39 36 -61 12 -22 26 -43 32 -47 7 -4 7 -26
0 -70 -11 -65 -5 -94 24 -111 7 -5 11 -12 8 -17 -3 -5 9 -18 26 -30 44 -32 50
-56 27 -109 -15 -35 -17 -51 -8 -74 5 -17 10 -32 10 -33 0 -2 -14 -4 -30 -4
-37 0 -52 -27 -26 -45 10 -8 20 -35 25 -66 7 -45 15 -59 52 -91 24 -21 50 -38
59 -38 13 0 13 2 0 10 -8 5 -11 12 -8 15 4 4 13 3 20 -1 7 -5 20 -9 28 -9 9 0
15 -9 14 -23 0 -12 4 -21 10 -20 6 0 19 -2 28 -6 10 -5 35 -4 55 1 l38 9 -42
19 c-24 10 -43 22 -43 27 0 4 -13 8 -29 8 -33 0 -61 24 -38 33 8 3 20 1 28 -4
8 -5 25 -9 39 -9 14 0 41 -14 60 -30 19 -16 38 -30 42 -30 4 0 12 -9 19 -21
10 -19 8 -20 -10 -14 -29 9 -59 -2 -66 -26 -4 -10 -11 -19 -16 -19 -6 0 -7 5
-4 10 3 6 -1 10 -10 10 -23 0 -35 -42 -35 -121 0 -62 -2 -69 -20 -69 -21 0
-27 15 -10 25 6 3 10 12 9 18 0 9 -2 9 -6 0 -7 -18 -38 -16 -57 3 -14 14 -16
14 -16 0 0 -8 9 -20 20 -26 11 -6 20 -17 20 -24 0 -8 10 -16 22 -20 25 -6 18
-16 -24 -34 -25 -10 -27 -9 -34 21 l-7 32 -13 -45 c-17 -58 -18 -55 9 -68 21
-11 20 -11 -5 -6 -22 5 -28 2 -28 -10 0 -9 -4 -17 -10 -17 -5 -1 -14 -2 -19
-3 -4 0 -20 -16 -36 -34 -20 -24 -26 -40 -22 -59 3 -15 0 -34 -6 -44 -8 -13
-6 -28 9 -60 10 -24 18 -47 16 -51 -1 -5 8 -25 21 -46 13 -20 27 -49 31 -65 3
-15 22 -45 42 -67 30 -33 34 -42 24 -60 -6 -11 -12 -36 -14 -56 -3 -28 -10
-39 -37 -53 -19 -10 -36 -26 -37 -36 -4 -19 40 -61 105 -101 34 -20 45 -34 53
-67 6 -23 16 -55 22 -70 6 -15 9 -29 7 -30 -36 -23 -101 -41 -173 -48 -96 -9
-108 -15 -137 -68 -11 -20 -36 -58 -55 -86 -27 -39 -34 -60 -34 -95 0 -51 27
-116 60 -145 25 -22 65 -92 65 -115 1 -21 128 -17 170 4 17 9 48 16 71 16 32
0 46 6 70 31 25 26 34 30 65 25 34 -5 37 -4 70 47 37 58 65 92 92 116 111 96
113 98 94 118 -24 28 -21 45 14 73 l31 26 -21 62 c-12 34 -21 70 -21 80 0 48
57 142 86 142 7 0 16 9 19 20 9 28 42 43 91 41 46 -1 74 17 74 48 0 10 9 30
21 45 16 21 20 35 15 61 -5 26 0 48 19 88 14 30 25 59 25 65 0 6 14 21 30 34
38 28 38 41 -2 69 -51 34 -58 47 -46 75 6 14 25 33 42 44 48 29 83 72 90 109
6 32 2 38 -49 85 -32 30 -55 60 -55 71 1 11 14 67 31 125 17 58 34 134 39 170
15 125 20 140 48 140 22 0 65 37 124 108 15 18 -20 56 -38 41 -17 -14 -48 3
-69 39 -10 16 -27 32 -39 38 -18 8 -21 16 -19 69 1 33 8 70 14 82 7 12 8 29 4
40 -5 10 -7 21 -7 25 1 4 -10 16 -26 25 -15 10 -31 23 -37 29 -31 33 -123 66
-240 85 -86 13 -149 35 -171 60 -9 10 -18 41 -20 71 -8 99 -13 116 -44 135
-31 18 -36 26 -44 78 -3 17 -18 41 -33 55 -25 23 -28 31 -25 72 3 36 9 49 23
53 26 9 24 18 -11 38 -16 10 -33 29 -36 43 -6 24 -34 35 -34 13 0 -17 -93 -2
-149 23 -85 40 -125 81 -136 142 -7 34 -6 38 11 32 30 -9 41 5 47 58 5 40 2
59 -15 94 -18 35 -20 47 -10 62 18 29 15 40 -10 40 -13 0 -41 2 -63 5 -22 3
-48 0 -58 -5z m-12 -231 c-10 -15 -25 -10 -19 6 4 8 10 12 15 9 5 -3 7 -10 4
-15z m133 -1371 c4 -23 -31 -28 -56 -8 -26 21 -23 25 20 24 21 -1 34 -6 36
-16z m162 -48 c0 -5 -5 -10 -11 -10 -5 0 -7 5 -4 10 3 6 8 10 11 10 2 0 4 -4
4 -10z m17 -308 c-12 -36 -12 -36 -15 -9 -4 34 4 60 17 53 5 -4 4 -21 -2 -44z
m618 -712 c3 -5 1 -10 -4 -10 -6 0 -11 5 -11 10 0 6 2 10 4 10 3 0 8 -4 11
-10z"/>
<path d="M4765 8660 c-1 -26 2 -34 10 -27 14 13 14 55 1 60 -7 3 -11 -11 -11
-33z"/>
<path d="M4574 8665 c-8 -19 2 -45 17 -45 8 0 8 4 -1 15 -7 8 -10 22 -6 30 3
8 3 15 0 15 -2 0 -7 -7 -10 -15z"/>
<path d="M4728 8669 c-10 -5 -18 -16 -18 -24 0 -12 5 -12 23 -4 13 6 24 17 24
25 0 16 -6 17 -29 3z"/>
<path d="M4100 8661 c-19 -6 -25 -14 -23 -33 1 -17 -7 -29 -26 -41 -40 -23
-35 -43 10 -45 28 -2 44 4 64 22 15 14 31 23 35 21 5 -3 19 -1 33 4 17 7 32 5
52 -5 32 -16 88 -10 106 12 6 8 19 14 28 15 17 1 -59 28 -94 34 -11 2 -40 8
-65 14 -51 12 -83 12 -120 2z"/>
<path d="M5055 8660 c-3 -5 -1 -10 5 -10 6 0 8 -5 4 -12 -4 -7 -3 -8 4 -4 6 4
9 13 5 21 -6 18 -10 19 -18 5z"/>
<path d="M4992 8625 c-7 -8 -12 -18 -11 -22 1 -12 -35 -21 -42 -11 -4 6 -9 6
-13 -1 -4 -6 -2 -11 4 -11 6 0 8 -6 4 -12 -6 -10 -4 -10 7 0 7 6 38 12 70 12
60 0 69 9 40 44 -17 20 -42 20 -59 1z"/>
<path d="M4726 8608 c3 -4 9 -8 15 -8 5 0 9 4 9 8 0 5 -7 9 -15 9 -8 0 -12 -4
-9 -9z"/>
<path d="M6220 8591 c0 -4 5 -12 11 -18 9 -9 7 -11 -7 -9 -11 2 -24 -4 -30
-13 -10 -13 -14 -13 -28 -2 -9 8 -19 11 -23 8 -10 -11 49 -52 84 -58 38 -7 73
12 73 40 0 10 -9 21 -20 24 -11 3 -20 11 -20 19 0 8 -9 14 -20 15 -11 1 -20
-2 -20 -6z m27 -77 c-3 -3 -12 -4 -19 -1 -8 3 -5 6 6 6 11 1 17 -2 13 -5z"/>
<path d="M4448 8559 c-71 -10 -100 -25 -96 -47 4 -17 20 -19 68 -7 17 4 31 0
46 -14 12 -11 25 -17 28 -14 3 4 6 1 6 -6 0 -7 6 -11 12 -9 8 3 12 18 10 40
-3 31 0 36 21 42 31 7 89 -3 99 -18 5 -7 8 -6 8 3 0 8 6 11 16 7 9 -3 12 -2 9
5 -4 6 -13 8 -20 5 -8 -3 -15 -1 -17 4 -5 13 -125 19 -190 9z"/>
<path d="M4761 8554 c0 -11 3 -14 6 -6 3 7 2 16 -1 19 -3 4 -6 -2 -5 -13z"/>
<path d="M4878 8555 c-3 -3 -20 -7 -38 -10 -18 -2 -43 -13 -55 -25 -15 -14
-24 -17 -27 -9 -3 9 -9 9 -23 1 -11 -6 -29 -13 -40 -17 -20 -6 -20 -7 1 -24
29 -23 56 -84 53 -118 -3 -45 10 -61 67 -83 l54 -20 40 39 c43 41 50 61 24 61
-9 0 -31 9 -49 20 -29 18 -33 26 -39 81 -6 52 -5 63 11 74 10 7 21 11 25 9 5
-3 8 2 8 10 0 17 -3 20 -12 11z"/>
<path d="M3990 8519 c0 -5 5 -7 10 -4 6 3 10 8 10 11 0 2 -4 4 -10 4 -5 0 -10
-5 -10 -11z"/>
<path d="M4560 8491 c0 -6 4 -13 10 -16 6 -3 7 1 4 9 -7 18 -14 21 -14 7z"/>
<path d="M3379 8458 c-1 -2 -3 -26 -5 -55 -2 -43 0 -51 14 -48 9 2 20 4 25 4
4 1 7 11 6 24 0 21 -1 21 -11 -3 -10 -24 -10 -24 -18 -5 -5 14 -3 24 8 33 10
8 12 12 3 12 -7 0 -9 5 -5 12 4 7 3 8 -4 4 -7 -4 -12 -3 -12 3 0 5 6 12 13 14
10 4 10 6 0 6 -7 1 -14 0 -14 -1z"/>
<path d="M3362 8318 c0 -33 -6 -52 -17 -60 -6 -5 -5 -8 3 -8 6 0 12 -7 12 -15
0 -17 9 -19 29 -6 9 6 15 28 15 60 2 46 0 51 -20 51 -16 0 -22 -6 -22 -22z"/>
<path d="M4053 8313 c-24 -9 -13 -19 22 -19 27 0 32 3 23 13 -11 13 -24 15
-45 6z"/>
<path d="M5722 8304 c-15 -10 -22 -25 -22 -48 0 -24 -7 -38 -22 -49 -28 -18
-13 -41 23 -35 30 4 74 88 65 124 -7 28 -14 29 -44 8z"/>
<path d="M5833 8273 c-10 -16 -22 -32 -28 -36 -5 -4 3 -6 20 -5 16 2 30 -1 31
-7 0 -5 4 -18 8 -28 5 -10 3 -23 -3 -31 -8 -10 -9 -16 -2 -21 11 -6 7 -13 -31
-55 -15 -17 -15 -19 14 -31 23 -9 32 -9 37 0 4 6 15 9 24 5 12 -4 15 0 14 14
0 12 -5 18 -9 16 -4 -3 -8 2 -8 10 0 9 5 16 10 16 6 0 1 9 -11 21 -15 15 -18
24 -10 32 13 13 15 30 2 22 -5 -3 -12 -1 -16 5 -3 5 0 10 7 10 10 0 9 3 -2 10
-9 6 -14 21 -12 45 4 42 -11 46 -35 8z m23 -30 c-3 -4 -6 -1 -6 6 0 7 -4 9
-10 6 -6 -4 -7 1 -3 11 6 15 7 15 15 -1 6 -9 7 -19 4 -22z"/>
<path d="M4233 8268 c1 -7 -4 -12 -11 -10 -8 1 -11 -2 -7 -8 3 -5 1 -10 -5
-10 -6 0 -9 -4 -5 -10 3 -5 12 -7 20 -3 9 3 15 -1 15 -10 0 -17 47 -29 57 -14
3 6 1 7 -5 3 -8 -5 -12 1 -12 14 0 14 4 19 13 14 7 -5 7 -1 -2 10 -13 15 -13
19 0 27 10 6 3 9 -23 9 -25 0 -37 -4 -35 -12z"/>
<path d="M4363 8252 c-10 -6 -10 -12 2 -28 14 -18 14 -18 8 4 -3 13 -1 22 6
22 7 0 9 -5 5 -11 -4 -8 0 -8 15 0 11 7 21 14 21 16 0 8 -44 5 -57 -3z"/>
<path d="M4326 8223 c-6 -14 -5 -15 5 -6 7 7 10 15 7 18 -3 3 -9 -2 -12 -12z"/>
<path d="M3385 8200 c3 -5 8 -10 11 -10 2 0 4 5 4 10 0 6 -5 10 -11 10 -5 0
-7 -4 -4 -10z"/>
<path d="M5548 8203 c-14 -3 -15 -8 -6 -23 9 -15 16 -16 35 -7 18 8 20 13 12
24 -12 13 -13 14 -41 6z"/>
<path d="M4176 8174 c-3 -7 2 -15 10 -18 7 -3 13 0 11 7 -1 7 9 11 26 11 15
-1 25 1 22 4 -11 11 -64 8 -69 -4z"/>
<path d="M4337 8160 c-3 -11 -1 -20 4 -20 5 0 9 9 9 20 0 11 -2 20 -4 20 -2 0
-6 -9 -9 -20z"/>
<path d="M5532 8130 c-7 -11 -8 -20 -3 -20 9 0 24 30 18 36 -1 2 -8 -6 -15
-16z"/>
<path d="M5360 8127 c0 -7 -14 -21 -30 -31 -32 -19 -31 -41 2 -33 11 3 17 3
14 0 -3 -3 1 -15 9 -27 8 -11 15 -28 15 -38 0 -21 23 -24 38 -5 6 6 13 29 17
50 4 21 13 37 21 37 8 0 14 -5 14 -12 0 -6 2 -9 5 -6 4 3 3 17 0 31 -9 36
-105 67 -105 34z"/>
<path d="M4155 8120 c3 -5 8 -10 11 -10 2 0 4 5 4 10 0 6 -5 10 -11 10 -5 0
-7 -4 -4 -10z"/>
<path d="M5180 8100 c-14 -4 -19 -8 -12 -9 8 -1 4 -10 -10 -25 -13 -12 -29
-21 -35 -18 -8 2 -13 -5 -13 -22 0 -14 5 -26 11 -26 5 0 7 -4 4 -10 -3 -5 1
-10 9 -10 8 0 18 5 21 10 5 8 11 7 21 -1 16 -13 16 -14 32 24 10 23 10 27 0
21 -10 -6 -11 -4 0 7 13 14 17 70 5 68 -5 -1 -19 -5 -33 -9z"/>
<path d="M5785 8100 c3 -5 11 -10 16 -10 6 0 7 5 4 10 -3 6 -11 10 -16 10 -6
0 -7 -4 -4 -10z"/>
<path d="M5622 8080 c-11 -18 -10 -20 8 -20 13 0 20 7 20 20 0 11 -3 20 -8 20
-4 0 -13 -9 -20 -20z"/>
<path d="M5567 8053 c-11 -10 -8 -53 3 -53 6 0 10 8 10 18 0 10 5 23 12 30 9
9 9 12 -3 12 -9 0 -19 -3 -22 -7z"/>
<path d="M6101 8021 c-8 -11 -20 -17 -27 -14 -7 2 -21 -5 -31 -16 -9 -12 -25
-21 -35 -21 -12 0 -16 -5 -11 -17 5 -17 5 -17 -8 -1 -14 18 -76 27 -96 15 -6
-4 -13 -18 -16 -32 -3 -20 -1 -25 10 -21 8 4 20 3 26 -1 12 -8 109 -12 101 -4
-2 2 8 10 23 18 22 11 28 11 43 -2 9 -8 26 -12 41 -10 13 3 53 8 89 11 36 3
68 10 73 15 4 5 4 7 1 4 -4 -3 -13 0 -20 6 -8 6 -20 9 -28 6 -9 -4 -25 5 -38
21 -20 23 -70 62 -80 62 -2 0 -10 -9 -17 -19z m99 -82 c0 -6 -4 -7 -10 -4 -5
3 -10 11 -10 16 0 6 5 7 10 4 6 -3 10 -11 10 -16z"/>
<path d="M3540 8010 c0 -5 7 -7 15 -4 8 4 15 8 15 10 0 2 -7 4 -15 4 -8 0 -15
-4 -15 -10z"/>
<path d="M3840 8010 c-9 -6 -10 -10 -3 -10 6 0 15 5 18 10 8 12 4 12 -15 0z"/>
<path d="M3415 8000 c3 -5 8 -10 11 -10 2 0 4 5 4 10 0 6 -5 10 -11 10 -5 0
-7 -4 -4 -10z"/>
<path d="M3579 8002 c-23 -4 -21 -60 3 -68 10 -3 18 -10 18 -15 0 -17 60 -10
66 9 3 9 10 25 15 35 8 14 6 22 -8 33 -23 17 -37 13 -41 -14 -4 -29 -30 -28
-34 1 -2 14 -9 21 -19 19z m61 -72 c12 -7 10 -9 -8 -7 -12 0 -22 5 -22 9 0 11
12 10 30 -2z"/>
<path d="M3703 7986 c34 -32 55 -38 92 -27 18 6 23 10 11 10 -11 1 -16 6 -13
15 6 15 -31 26 -86 26 l-30 0 26 -24z"/>
<path d="M3485 7968 c3 -12 0 -25 -6 -29 -8 -5 -8 -8 0 -13 6 -4 11 -2 11 4 0
8 11 10 33 6 27 -5 29 -5 9 4 -13 5 -21 13 -18 18 2 4 -4 13 -14 20 -16 10
-18 9 -15 -10z"/>
<path d="M6430 7980 c0 -5 -9 -10 -19 -10 -13 0 -21 -8 -23 -22 -2 -15 -13
-24 -35 -30 -27 -7 -63 -44 -51 -52 84 -61 108 -66 153 -32 30 23 35 33 35 70
0 35 -5 46 -30 64 -16 13 -30 18 -30 12z"/>
<path d="M3358 7973 c6 -2 18 -2 25 0 6 3 1 5 -13 5 -14 0 -19 -2 -12 -5z"/>
<path d="M3962 7946 c2 -18 8 -26 21 -26 10 0 15 -4 12 -10 -3 -5 -2 -10 3
-10 5 0 9 15 7 33 -2 24 -8 33 -24 35 -17 3 -21 -1 -19 -22z"/>
<path d="M3410 7940 c0 -11 7 -20 15 -20 8 0 15 9 15 20 0 11 -7 20 -15 20 -8
0 -15 -9 -15 -20z"/>
<path d="M3318 7923 c-8 -14 -3 -33 7 -31 29 4 45 11 45 20 0 5 -5 6 -10 3 -6
-4 -17 -2 -25 5 -7 6 -15 7 -17 3z"/>
<path d="M3230 7906 c0 -17 5 -21 44 -30 26 -6 27 -6 12 9 -9 9 -14 21 -11 26
4 5 -5 9 -19 9 -16 0 -26 -6 -26 -14z"/>
<path d="M4150 7893 c0 -12 5 -25 10 -28 13 -8 13 15 0 35 -8 12 -10 11 -10
-7z"/>
<path d="M4102 7836 c-12 -18 -40 -41 -62 -53 -39 -19 -40 -20 -20 -38 26 -24
61 -14 105 30 38 39 45 69 17 84 -14 8 -22 3 -40 -23z"/>
<path d="M6158 7788 c-9 -13 -22 -50 -30 -83 -14 -54 -14 -62 0 -77 26 -30 49
-31 87 -2 28 21 41 25 70 20 22 -4 41 -17 52 -32 16 -24 15 -34 -2 -160 -18
-129 -18 -134 0 -154 14 -16 21 -18 33 -8 12 10 19 7 38 -15 l24 -28 -6 33
c-9 52 -12 58 -32 58 -17 0 -18 5 -11 48 23 141 39 178 69 162 49 -26 55 11
10 58 -16 18 -30 37 -30 43 0 6 -7 26 -16 45 -15 31 -20 34 -61 34 -34 0 -49
5 -64 23 -10 12 -18 27 -19 33 0 15 -24 24 -65 24 -23 0 -37 -7 -47 -22z"/>
<path d="M5650 7782 c0 -30 -31 -51 -75 -50 -75 1 -85 -1 -78 -18 5 -14 18
-16 92 -10 96 8 121 22 121 68 0 24 -4 28 -30 28 -22 0 -30 -5 -30 -18z"/>
<path d="M2663 7762 c-20 -24 -25 -26 -44 -14 -26 16 -27 16 -33 -33 -6 -55
-41 -131 -65 -147 -12 -7 -21 -20 -21 -30 0 -30 -12 -48 -32 -48 -11 0 -44 -7
-74 -16 -48 -14 -56 -20 -61 -46 -3 -16 -17 -37 -30 -45 -14 -9 -31 -34 -40
-55 -17 -41 -83 -105 -120 -114 -12 -4 -48 -2 -80 4 -92 16 -103 4 -49 -56 19
-21 37 -49 41 -64 4 -14 18 -31 33 -38 24 -10 57 -33 134 -91 21 -16 21 -17
-30 -33 -29 -10 -52 -21 -52 -26 0 -4 -21 -22 -46 -38 -34 -23 -51 -29 -67
-23 -12 4 -35 11 -51 15 -24 6 -27 5 -18 -6 6 -7 14 -38 18 -67 5 -42 15 -63
41 -92 19 -21 43 -64 54 -95 19 -52 49 -94 69 -94 11 0 23 -47 25 -94 1 -26 8
-44 23 -56 24 -20 28 -36 12 -42 -7 -2 -2 -24 11 -56 17 -42 19 -55 9 -67 -7
-8 -16 -12 -21 -9 -15 9 -10 -13 6 -26 8 -7 15 -17 15 -23 0 -17 69 -101 100
-122 32 -21 40 -45 15 -45 -8 0 -15 -6 -16 -12 -3 -40 0 -155 4 -168 4 -8 7
-28 9 -45 2 -21 9 -31 23 -34 11 -2 23 -8 27 -14 7 -12 -30 -87 -43 -87 -13 0
-4 -25 18 -54 12 -15 27 -44 33 -64 7 -20 23 -61 36 -90 13 -29 24 -56 24 -61
0 -5 11 -16 25 -25 19 -12 24 -23 21 -46 -4 -37 -32 -80 -51 -80 -9 0 -15 -10
-15 -25 0 -19 8 -28 35 -39 19 -8 38 -22 41 -31 3 -8 12 -15 19 -15 14 0 25
-22 25 -51 0 -21 42 -42 105 -52 31 -5 48 -2 72 13 l31 19 15 -23 c9 -12 19
-44 22 -71 l8 -47 45 6 c32 4 50 2 61 -8 9 -8 28 -18 44 -21 23 -6 26 -5 21 9
-8 22 25 96 43 96 7 0 13 -3 14 -7 6 -72 17 -92 58 -109 31 -13 32 -12 41 14
6 15 14 34 19 42 13 23 5 67 -23 125 -15 28 -26 54 -26 56 0 2 23 2 51 0 l51
-3 -51 67 c-71 94 -68 161 3 80 50 -58 146 -62 167 -8 8 22 6 35 -10 64 -20
36 -29 99 -13 99 4 0 22 -9 40 -20 29 -18 32 -18 32 -2 0 9 -7 25 -15 36 -8
10 -19 44 -26 74 -13 67 -61 122 -103 122 -43 0 -105 37 -112 66 -12 47 9 391
27 454 6 19 14 60 19 90 4 30 15 92 24 137 22 114 3 254 -39 299 -5 6 -24 27
-42 47 -17 19 -44 42 -60 51 -20 10 -33 27 -41 54 -7 22 -19 45 -27 52 -21 17
-19 54 6 103 20 38 21 46 9 92 -7 27 -20 64 -29 80 l-16 30 -3 -32 c-4 -38 -5
-38 -41 -17 -21 12 -28 24 -28 48 0 17 4 34 10 37 5 4 10 32 11 62 1 51 -2 59
-31 88 -18 17 -33 37 -33 43 0 6 -13 17 -30 23 -16 6 -30 18 -30 27 0 8 -9 21
-21 29 -11 8 -21 21 -23 28 -1 8 -4 19 -8 24 -24 38 -29 207 -7 221 5 3 9 14
9 25 0 10 5 19 11 19 6 0 4 7 -5 15 -21 22 -38 18 -63 -13z m203 -550 c-18
-16 -18 -16 -6 6 6 13 14 21 18 18 3 -4 -2 -14 -12 -24z m-26 -2261 c0 -22
-15 -35 -29 -27 -13 9 -1 46 15 46 8 0 14 -9 14 -19z"/>
<path d="M5772 7458 c-47 -23 -71 -42 -90 -72 -25 -39 -26 -47 -27 -190 l0
-150 42 -25 c23 -14 43 -32 43 -38 0 -7 11 -13 24 -13 14 0 37 -5 52 -10 44
-17 39 -4 -8 19 -90 45 -120 93 -119 194 0 61 27 119 61 132 8 4 2 -7 -14 -24
-34 -35 -45 -107 -27 -163 28 -85 143 -167 214 -153 56 11 120 49 185 110 l64
59 -4 52 c-7 88 -93 200 -188 245 -25 12 -53 25 -62 30 -10 5 -27 9 -37 9 -11
0 -23 5 -26 10 -8 14 -11 13 -83 -22z"/>
<path d="M4043 7421 c-4 -15 -10 -18 -27 -12 -11 4 -46 8 -77 9 l-55 1 -29
-60 c-25 -54 -27 -64 -16 -94 10 -29 9 -38 -11 -75 -13 -24 -31 -44 -41 -46
-25 -3 -47 -23 -47 -43 0 -9 16 -33 35 -54 19 -21 35 -42 35 -47 0 -20 69 -61
97 -58 31 3 59 46 43 62 -16 16 -11 45 10 58 11 7 20 19 20 27 0 8 3 11 6 8 4
-4 20 5 37 19 29 24 30 24 51 7 38 -33 65 -43 96 -37 23 5 30 12 30 29 0 20 7
24 48 30 26 3 56 13 66 21 18 13 18 15 3 32 -23 25 -21 40 6 45 20 3 21 4 3
12 -35 15 -120 76 -134 96 -7 10 -34 29 -60 40 -26 12 -51 28 -55 35 -11 20
-28 17 -34 -5z m122 -214 c10 -8 15 -19 11 -25 -11 -18 -22 -14 -40 13 -19 29
-3 35 29 12z m-165 -6 c0 -12 -29 -41 -41 -41 -14 0 -11 11 8 32 17 19 33 24
33 9z m44 -8 c7 -16 -16 -43 -36 -43 -11 0 -10 4 4 35 13 29 23 32 32 8z"/>
<path d="M3275 7200 c-3 -5 1 -10 10 -10 9 0 13 5 10 10 -3 6 -8 10 -10 10 -2
0 -7 -4 -10 -10z"/>
<path d="M3291 7124 c0 -11 3 -14 6 -6 3 7 2 16 -1 19 -3 4 -6 -2 -5 -13z"/>
<path d="M4020 7086 c0 -8 5 -18 10 -21 6 -3 10 3 10 14 0 12 -4 21 -10 21 -5
0 -10 -6 -10 -14z"/>
<path d="M6456 7084 c-4 -9 -2 -13 5 -8 8 4 9 -1 4 -15 -7 -23 -2 -22 44 7 5
3 -31 31 -40 32 -4 0 -10 -7 -13 -16z"/>
<path d="M6580 6971 c0 -11 29 -35 35 -29 2 2 -4 12 -15 21 -11 9 -20 13 -20
8z"/>
<path d="M6507 6963 c-10 -9 -9 -23 1 -23 5 0 9 7 9 15 0 17 -1 18 -10 8z"/>
<path d="M6550 6910 c8 -5 22 -10 31 -10 25 0 49 -33 58 -81 6 -32 10 -39 15
-27 5 11 -2 38 -17 70 -22 51 -26 54 -63 56 -29 2 -35 0 -24 -8z"/>
<path d="M6746 6417 c3 -10 9 -15 12 -12 3 3 0 11 -7 18 -10 9 -11 8 -5 -6z"/>
<path d="M4820 6165 c-25 -8 -70 -23 -100 -32 -42 -13 -68 -31 -109 -73 -144
-148 -141 -322 9 -507 38 -46 64 -66 131 -100 46 -24 104 -50 129 -58 45 -16
97 -51 88 -60 -2 -2 -31 -7 -64 -11 -32 -3 -72 -12 -89 -19 -16 -8 -59 -16
-95 -20 -85 -9 -102 -14 -73 -25 18 -8 21 -15 18 -54 -3 -52 4 -61 58 -70 20
-4 37 -13 37 -20 0 -16 74 -46 112 -46 15 0 30 -5 34 -11 3 -6 17 -8 30 -5 14
4 24 2 24 -4 0 -20 70 -5 90 19 8 10 60 31 77 31 9 0 34 9 57 20 23 10 58 26
79 34 48 19 63 55 42 99 -8 18 -25 38 -37 46 -39 24 -120 41 -203 42 l-80 1
50 14 c28 8 91 17 140 19 80 4 99 9 170 44 75 37 155 101 155 125 0 5 8 19 19
30 10 12 30 55 45 97 22 66 25 91 23 175 -3 92 -5 103 -39 164 -40 72 -98 121
-176 147 -69 23 -488 29 -552 8z"/>
<path d="M2200 6058 c1 -13 69 -62 77 -55 2 3 -14 19 -37 37 -23 19 -40 26
-40 18z"/>
<path d="M4637 5203 c-12 -11 -8 -23 8 -23 8 0 15 7 15 15 0 16 -12 20 -23 8z"/>
<path d="M3083 4652 c20 -20 27 -39 27 -66 0 -23 4 -35 10 -31 6 4 8 15 5 26
-4 10 -2 19 4 19 25 0 41 -14 41 -37 0 -38 40 -126 69 -151 79 -69 88 -88 62
-135 -9 -17 -25 -54 -35 -82 -16 -47 -15 -51 2 -74 24 -33 34 -30 55 13 9 20
23 36 30 36 8 0 9 3 1 8 -18 12 -35 50 -25 57 6 3 17 19 25 36 14 29 14 33 -6
59 -13 18 -19 37 -15 50 7 28 -12 60 -35 60 -10 0 -26 8 -36 18 -10 9 -30 24
-46 32 -26 13 -28 18 -23 57 2 23 1 40 -3 38 -4 -3 -11 2 -14 11 -4 12 -2 15
9 10 8 -3 15 -1 15 4 0 6 -17 10 -38 10 -33 0 -39 4 -49 30 -8 21 -18 30 -34
30 -23 0 -23 0 4 -28z m227 -476 c0 -16 -18 -31 -27 -22 -8 8 5 36 17 36 5 0
10 -6 10 -14z"/>
<path d="M3849 4596 c11 -12 24 -37 28 -56 7 -38 62 -129 78 -129 9 -1 37 -34
95 -113 11 -14 41 -37 68 -49 26 -13 52 -28 57 -35 6 -6 35 -28 65 -48 30 -19
69 -49 86 -66 35 -34 58 -38 73 -12 8 13 10 3 8 -38 -1 -30 2 -67 7 -82 7 -23
5 -28 -8 -28 -27 0 -24 -46 5 -73 27 -25 19 -41 -19 -45 -18 -2 -32 -8 -32
-13 0 -13 45 -29 84 -29 24 0 38 -7 49 -22 14 -22 20 -23 158 -23 151 0 144
-1 249 55 19 11 49 19 66 20 18 0 58 14 89 30 31 17 70 30 86 30 23 0 34 7 47
32 28 52 44 62 126 82 43 10 101 32 130 48 28 17 58 34 66 39 110 61 198 121
227 154 76 86 109 118 150 142 24 14 40 29 37 34 -3 5 -10 7 -15 3 -6 -3 -17
3 -25 15 -19 26 -53 27 -102 2 -20 -10 -82 -36 -137 -56 -55 -20 -107 -43
-116 -51 -8 -8 -21 -14 -28 -14 -7 0 -46 -14 -86 -31 -53 -22 -76 -37 -80 -52
-15 -53 -41 -86 -91 -116 -28 -17 -55 -31 -59 -31 -4 0 -18 9 -32 20 -23 18
-27 18 -48 4 -13 -9 -25 -25 -27 -37 -3 -20 -8 -22 -78 -22 -50 1 -86 7 -109
18 -39 19 -83 22 -112 6 -25 -13 -79 -2 -79 16 0 23 -116 135 -140 135 -32 0
-127 -48 -149 -75 l-17 -23 -27 33 c-15 19 -27 37 -27 41 0 4 -12 22 -26 41
-16 21 -24 44 -23 61 3 21 -12 46 -60 107 -35 44 -69 80 -75 80 -6 0 -29 17
-51 38 -39 36 -41 37 -95 30 -98 -12 -101 -11 -125 31 -12 22 -30 41 -40 42
-15 2 -15 0 4 -20z"/>
<path d="M2125 4405 c-16 -8 -26 -14 -21 -15 4 0 -8 -16 -28 -36 -33 -33 -49
-63 -27 -50 14 9 21 -20 8 -34 -9 -10 -8 -12 6 -7 20 7 24 -8 3 -16 -7 -3 -19
0 -25 6 -8 8 -11 7 -11 -6 0 -10 -8 -17 -21 -17 -13 0 -18 -4 -13 -11 5 -9 -1
-10 -20 -5 -19 5 -28 2 -32 -9 -4 -8 -12 -15 -19 -15 -6 0 -16 -15 -21 -32 -7
-23 -17 -34 -32 -36 -25 -4 -30 16 -9 37 12 13 13 13 -40 -5 -17 -5 -17 -6 0
-16 18 -9 18 -11 -2 -29 -28 -27 -26 -40 10 -72 28 -25 31 -31 21 -52 -10 -21
-15 -23 -37 -15 -26 10 -55 4 -55 -11 0 -5 9 -9 20 -9 26 0 25 -6 -5 -33 -28
-24 -49 -83 -34 -92 5 -3 24 -3 44 1 l35 6 -16 -31 c-8 -17 -20 -32 -25 -32
-19 -3 -24 -5 -35 -12 -7 -3 -14 -17 -17 -29 -3 -13 -16 -61 -30 -108 -18 -60
-25 -109 -25 -165 0 -92 14 -123 47 -106 11 6 22 11 26 11 10 0 -24 -58 -55
-94 -34 -38 -37 -57 -14 -81 13 -12 13 -19 4 -30 -7 -8 -10 -35 -8 -62 2 -38
0 -48 -14 -51 -9 -2 -19 5 -22 15 -4 14 -4 13 -3 -3 1 -12 -5 -33 -13 -48 -13
-26 -13 -29 8 -45 31 -23 20 -51 -19 -51 -18 0 -32 -7 -39 -19 -11 -21 2 -37
20 -26 6 3 14 3 20 0 15 -9 -19 -55 -42 -55 -13 0 -18 -6 -16 -17 3 -13 12
-17 32 -15 35 4 31 -21 -4 -26 -18 -3 -20 -6 -9 -13 11 -7 10 -12 -8 -31 -22
-22 -23 -22 -38 -3 -8 11 -15 15 -15 9 0 -19 28 -37 50 -31 26 7 63 -42 89
-119 20 -59 26 -63 66 -49 15 5 16 4 6 -3 -11 -8 -4 -14 30 -29 51 -23 62 -35
78 -84 6 -19 28 -51 47 -70 20 -19 46 -55 59 -81 l22 -47 16 35 c21 42 21 44
2 44 -8 0 -15 4 -15 8 0 16 74 10 87 -6 11 -15 14 -15 23 -2 5 8 11 19 13 24
1 5 42 10 89 12 48 1 106 8 130 15 57 16 95 13 119 -10 17 -16 32 -18 90 -14
65 4 70 3 77 -18 l9 -23 6 24 c4 17 9 21 19 13 18 -14 67 -22 74 -12 3 5 16 1
30 -7 23 -15 26 -15 44 1 11 10 26 14 38 11 24 -8 45 16 60 70 16 54 15 74 -2
74 -21 0 -96 77 -96 99 0 11 12 29 26 40 18 14 25 27 21 41 -3 12 6 36 23 62
34 51 44 94 25 102 -11 4 -12 25 -8 99 6 90 5 95 -16 102 -25 8 -28 23 -5 32
8 3 13 12 10 20 -3 8 2 31 11 51 18 41 18 123 -1 134 -6 4 -49 5 -96 2 -60 -5
-102 -2 -141 8 -30 8 -69 13 -86 11 -28 -5 -31 -2 -43 41 -14 52 -36 60 -70
26 -24 -24 -30 -25 -30 -6 0 7 -13 27 -30 44 -23 25 -30 41 -30 72 0 41 -7 48
-47 54 -13 2 -19 13 -21 37 -5 61 -12 80 -51 122 -21 23 -43 52 -50 64 -16 30
-14 78 4 93 12 10 14 31 8 116 l-6 104 36 53 c20 29 52 68 72 87 46 45 45 66
-3 86 -26 10 -46 28 -60 53 -29 50 -28 58 9 92 35 33 35 33 -10 18 -24 -9 -31
-17 -31 -37 0 -35 -45 -63 -80 -50 -23 8 -22 9 16 43 21 19 47 37 57 40 9 4
17 11 17 16 0 13 -29 10 -65 -6z"/>
<path d="M7062 4295 c0 -16 2 -22 5 -12 2 9 2 23 0 30 -3 6 -5 -1 -5 -18z"/>
<path d="M1938 4262 c-2 -18 -1 -35 3 -38 13 -8 18 12 10 42 l-8 29 -5 -33z"/>
<path d="M1887 4223 c-4 -3 -7 -13 -7 -22 1 -13 3 -13 11 2 11 19 8 33 -4 20z"/>
<path d="M7008 4140 c-1 -28 0 -50 5 -50 4 0 7 23 7 50 0 65 -7 65 -12 0z"/>
<path d="M6991 4148 c0 -10 -5 -18 -11 -18 -5 0 -10 -6 -10 -14 0 -8 -11 -27
-24 -43 -22 -26 -22 -29 -6 -29 10 0 16 4 14 8 -3 4 7 18 21 31 21 17 26 29
22 52 -2 17 -5 22 -6 13z"/>
<path d="M3685 4110 c8 -16 27 -37 40 -46 21 -14 24 -22 19 -50 -8 -45 35
-123 82 -149 35 -19 36 -20 33 -80 -3 -80 0 -120 7 -112 4 3 13 0 20 -8 8 -7
18 -15 24 -17 18 -6 -2 -46 -26 -52 -32 -8 -31 -26 2 -26 58 0 101 21 114 56
17 43 71 65 99 40 19 -17 36 -22 27 -7 -10 16 21 20 43 4 14 -9 21 -23 19 -40
-3 -25 7 -35 47 -48 20 -6 20 -7 1 -21 -18 -12 -18 -15 -4 -26 8 -7 25 -30 37
-50 21 -36 51 -51 51 -27 0 5 5 7 10 4 14 -8 13 21 -1 48 -7 12 -25 33 -40 46
-20 16 -31 39 -40 80 -12 54 -22 75 -37 77 -31 3 -69 20 -80 36 -12 17 -14 17
-40 -7 -36 -34 -72 -34 -72 0 0 14 -3 25 -8 25 -17 0 -42 -42 -42 -70 0 -17
-4 -30 -10 -30 -5 0 -10 7 -10 15 0 8 -9 15 -20 15 -28 0 -25 20 3 21 l22 0
-22 9 c-23 9 -43 62 -43 112 0 26 -50 88 -71 88 -5 0 -9 6 -9 14 0 8 -6 21
-13 28 -25 24 -35 53 -30 80 4 22 -2 35 -30 63 -19 19 -42 35 -51 35 -15 0
-15 -3 -1 -30z"/>
<path d="M6567 4040 c-14 -11 -31 -20 -38 -20 -8 0 -6 -5 5 -13 23 -17 12 -25
-66 -57 -32 -12 -58 -23 -59 -24 0 0 -3 -21 -5 -45 -7 -56 -16 -73 -47 -90
-23 -12 -29 -11 -53 8 -22 17 -30 19 -42 9 -29 -23 -50 -46 -67 -72 -12 -18
-26 -26 -45 -26 -38 0 -119 -57 -144 -102 -12 -20 -36 -53 -53 -74 -18 -20
-33 -42 -33 -48 0 -6 7 -2 16 9 49 66 64 83 107 126 49 49 123 78 168 66 14
-4 32 5 57 27 22 20 53 36 77 40 68 12 85 29 85 85 0 48 20 81 49 81 7 0 34 9
60 20 49 21 81 61 81 99 0 26 -20 27 -53 1z"/>
<path d="M3340 4030 c0 -12 -13 -38 -29 -58 -35 -45 -50 -85 -28 -76 8 3 18 1
22 -5 12 -20 22 -11 33 27 6 20 16 51 23 68 11 28 10 34 -4 49 -16 15 -17 15
-17 -5z"/>
<path d="M6873 4027 c4 -12 3 -16 -4 -11 -6 4 -14 2 -18 -3 -3 -5 -24 -22 -46
-38 -22 -17 -42 -32 -45 -35 -3 -3 -22 -14 -42 -25 -21 -11 -38 -23 -38 -27 0
-5 -7 -8 -15 -8 -8 0 -15 -5 -15 -11 0 -6 8 -8 18 -5 9 2 27 7 40 11 12 4 19
11 16 17 -4 6 1 8 13 4 10 -3 28 1 39 9 10 8 37 15 59 15 29 0 36 3 25 10 -12
8 -12 13 6 37 33 46 34 50 17 64 -15 12 -16 12 -10 -4z"/>
<path d="M7418 3528 c-8 -13 -24 -44 -36 -70 -12 -25 -29 -49 -39 -52 -10 -3
-38 -25 -61 -48 l-44 -41 7 -56 c7 -59 24 -99 49 -120 43 -36 -6 -101 -75
-101 -33 0 -40 -4 -45 -26 -10 -38 1 -108 24 -154 17 -35 18 -43 6 -55 -21
-20 -18 -41 3 -24 15 13 16 11 10 -11 -4 -14 -7 -30 -7 -37 0 -6 -7 -18 -15
-27 -8 -8 -23 -44 -32 -80 -17 -63 -17 -67 5 -158 25 -102 49 -165 58 -155 12
11 44 -13 44 -33 0 -11 -10 -25 -22 -31 -35 -19 -38 -29 -31 -112 5 -64 3 -84
-13 -117 -10 -22 -22 -40 -25 -40 -14 0 -61 -122 -55 -144 3 -12 20 -38 39
-57 42 -44 81 -139 74 -182 -3 -17 -8 -50 -12 -72 -6 -36 -4 -43 27 -72 84
-80 93 -95 73 -134 -15 -28 -15 -34 -1 -64 20 -41 21 -142 2 -186 -14 -32 -13
-35 10 -54 20 -16 26 -32 31 -87 10 -110 -11 -164 -103 -269 -18 -20 -35 -51
-39 -68 -3 -17 -11 -33 -16 -36 -9 -6 -13 -65 -5 -65 3 0 29 23 58 51 29 27
67 57 83 66 17 9 33 20 36 25 3 5 26 12 50 15 34 5 51 14 76 42 18 20 33 45
33 57 0 33 19 45 46 28 14 -10 32 -13 44 -9 24 8 21 15 -7 19 -10 2 -24 14
-30 27 -14 27 -17 69 -5 69 9 0 12 26 12 103 0 32 3 64 7 70 4 7 8 53 9 102 1
116 11 168 31 160 17 -6 43 11 43 27 0 6 -6 8 -14 5 -27 -11 -25 34 4 81 16
26 44 72 61 102 18 30 50 72 70 92 40 40 54 84 65 203 2 33 7 68 11 79 3 10
-4 39 -15 65 -12 25 -23 63 -27 83 -4 25 -12 39 -25 43 -11 4 -20 11 -20 16 0
5 -20 30 -45 56 -25 27 -52 55 -60 64 -8 9 -15 20 -15 26 0 6 -20 31 -45 55
-25 25 -45 43 -45 40 0 -3 -9 3 -21 14 -29 26 -68 95 -81 141 -5 21 -16 45
-23 53 -7 8 -23 38 -35 65 -12 28 -27 53 -32 56 -6 4 -13 28 -16 55 -3 32 -12
54 -24 62 -15 11 -17 22 -13 65 3 29 7 76 9 105 2 29 7 56 10 59 3 3 1 12 -5
20 -9 10 -8 13 4 13 14 0 14 3 2 27 -12 23 -12 28 1 38 12 8 13 16 4 39 -8 22
-8 31 1 37 6 4 8 12 5 18 -11 17 3 34 18 22 14 -12 30 -3 39 21 9 24 -11 33
-32 14 -10 -9 -21 -16 -26 -16 -23 0 37 40 69 46 28 5 35 10 31 23 -3 9 -7 62
-9 117 -3 76 -8 100 -19 102 -8 2 -21 -7 -29 -20z"/>
<path d="M4350 3410 c-12 -8 -9 -10 13 -10 15 0 39 -7 53 -16 13 -9 27 -14 30
-11 7 6 -32 32 -61 41 -11 3 -27 1 -35 -4z"/>
<path d="M4386 3351 c5 -5 20 -12 34 -15 l25 -7 -25 15 c-28 17 -50 21 -34 7z"/>
<path d="M4480 3349 c0 -5 11 -15 25 -21 26 -12 35 -47 13 -49 -15 -1 21 -17
39 -18 14 -1 11 55 -3 68 -16 15 -74 30 -74 20z"/>
<path d="M3415 3289 c-22 -10 -50 -19 -62 -19 -13 0 -23 -5 -23 -11 0 -6 -7
-8 -16 -5 -18 7 -44 -10 -44 -28 0 -10 53 -36 73 -36 4 0 12 11 17 25 7 19 17
25 40 25 31 0 40 13 18 26 -16 10 19 22 48 16 14 -2 27 -17 37 -43 12 -30 21
-39 39 -39 13 0 18 3 12 8 -10 7 -34 45 -34 55 0 3 12 8 26 11 33 9 55 -9 52
-43 -2 -19 3 -29 20 -36 12 -5 22 -18 22 -27 0 -12 13 -21 40 -28 21 -6 42
-15 45 -20 4 -7 36 -8 83 -4 l77 6 18 -83 c22 -99 37 -149 49 -163 4 -6 17
-21 27 -33 13 -17 35 -25 87 -32 64 -10 71 -13 110 -56 31 -35 47 -46 64 -43
40 5 33 25 -22 61 -29 19 -64 44 -77 56 -17 15 -37 21 -70 21 -25 0 -52 4 -59
9 -8 4 -22 39 -31 77 -10 37 -23 70 -30 72 -6 2 -11 -1 -11 -7 0 -6 -4 -11
-10 -11 -19 0 -10 28 10 33 25 6 29 67 5 67 -8 0 -15 6 -15 14 0 13 -27 31
-42 28 -5 -1 -8 3 -8 9 0 8 -14 10 -41 6 -47 -6 -89 6 -89 26 0 14 -41 67 -52
67 -13 0 -15 -40 -2 -51 10 -8 12 -15 5 -22 -11 -11 -50 28 -51 49 0 6 -22 30
-49 52 -44 37 -55 42 -98 41 -26 0 -66 -9 -88 -20z"/>
<path d="M6740 3231 c0 -36 -42 -86 -65 -77 -7 2 -18 -1 -25 -8 -8 -10 -7 -15
5 -20 30 -11 13 -48 -34 -73 -50 -26 -61 -23 -61 18 0 27 -3 30 -22 24 -31
-10 -46 -25 -25 -25 29 0 19 -36 -17 -64 -19 -14 -39 -26 -45 -26 -17 0 -13
31 7 53 14 17 12 17 -15 -3 -31 -23 -36 -23 -133 -6 -14 2 -30 0 -36 -5 -6 -5
-22 -2 -38 6 -16 8 -34 15 -41 15 -18 0 -55 -53 -55 -78 0 -11 -7 -27 -15 -36
-8 -8 -15 -17 -15 -20 0 -15 22 -2 63 39 l45 44 94 -8 c51 -4 102 -12 113 -18
21 -11 65 -1 65 15 0 5 11 14 25 20 21 10 27 9 31 -3 9 -22 22 -18 56 15 28
28 78 42 78 21 0 -5 8 -12 17 -15 24 -10 35 15 18 41 -24 36 -18 62 25 113 41
49 42 49 128 51 44 1 41 15 -5 23 -133 21 -123 22 -123 -13z"/>
<path d="M6045 2845 c-22 -25 -44 -45 -51 -45 -6 0 -18 -8 -26 -17 -25 -31
-60 -93 -51 -93 5 0 16 15 26 33 10 17 33 43 52 56 36 24 112 111 98 111 -4 0
-26 -20 -48 -45z"/>
<path d="M3364 2426 c-12 -32 1 -60 32 -68 33 -8 51 -30 74 -88 19 -50 27 -56
48 -37 27 25 44 14 70 -43 28 -61 57 -90 91 -90 14 0 35 -7 45 -15 10 -8 23
-12 27 -9 5 3 9 0 9 -5 0 -6 7 -11 15 -11 8 0 25 -10 37 -22 26 -26 100 -28
127 -4 18 16 41 21 41 9 0 -3 -7 -14 -16 -24 -20 -22 -13 -42 21 -65 24 -15
28 -16 42 -2 14 15 13 17 -8 29 -13 7 -26 11 -29 10 -3 -1 -6 4 -8 12 -1 7 9
19 23 25 22 10 24 15 15 32 -13 25 -27 25 -65 0 -35 -23 -55 -19 -96 21 -17
16 -34 27 -40 24 -11 -7 -41 20 -32 29 3 3 -7 10 -23 16 -16 6 -34 18 -41 26
-6 9 -17 13 -23 9 -9 -6 -9 -10 1 -17 9 -5 3 -6 -15 -2 -16 4 -43 21 -59 38
-17 17 -50 42 -75 56 -27 15 -52 39 -63 60 -18 35 -97 120 -112 120 -4 0 -10
-6 -13 -14z m433 -352 c-3 -3 -12 -4 -19 -1 -8 3 -5 6 6 6 11 1 17 -2 13 -5z"/>
<path d="M6448 2360 c17 -14 22 -25 17 -40 -8 -25 -72 -70 -101 -70 -11 0 -31
-11 -44 -26 -18 -18 -31 -23 -47 -19 -26 6 -89 -30 -139 -79 -17 -17 -49 -47
-72 -66 -24 -19 -37 -37 -31 -41 14 -8 59 1 59 12 0 5 6 9 14 9 7 0 37 22 65
49 33 31 58 48 67 44 9 -3 21 3 30 16 8 11 22 21 30 21 8 0 39 13 69 29 30 16
57 25 60 20 11 -16 22 -9 35 21 7 17 16 30 21 30 5 0 9 5 9 12 0 6 19 29 41
52 27 25 37 42 29 44 -7 3 -19 -3 -25 -12 -15 -20 -51 -21 -59 -1 -3 8 -16 15
-28 15 l-23 -1 23 -19z"/>
<path d="M6670 2146 c-30 -7 -68 -20 -85 -29 -16 -9 -35 -17 -41 -17 -6 0 -24
-10 -40 -22 -15 -13 -50 -34 -78 -48 -34 -17 -56 -37 -71 -64 -13 -26 -31 -42
-48 -47 -15 -4 -42 -19 -60 -33 -68 -55 -108 -76 -145 -76 -17 0 -34 -4 -37
-10 -3 -5 -15 -10 -26 -10 -11 0 -30 -9 -41 -20 -19 -18 -20 -22 -8 -34 27
-26 90 -20 90 9 0 22 29 38 83 46 29 5 57 16 64 25 7 9 19 14 28 11 24 -10 59
8 75 39 18 36 30 48 52 56 9 4 18 19 20 35 2 23 9 29 41 35 21 4 52 21 70 38
42 39 84 59 144 67 50 7 92 29 93 51 0 14 -8 14 -80 -2z m-380 -270 c0 -3 -4
-8 -10 -11 -5 -3 -10 -1 -10 4 0 6 5 11 10 11 6 0 10 -2 10 -4z"/>
<path d="M4150 1999 c0 -5 5 -7 10 -4 6 3 10 1 10 -5 0 -6 5 -8 11 -4 8 4 7 9
-2 15 -19 12 -29 11 -29 -2z"/>
<path d="M4026 1935 c-4 -10 1 -15 14 -15 11 0 20 -3 20 -7 0 -5 22 -9 49 -9
41 -2 50 1 54 17 4 16 0 19 -32 19 -20 0 -43 -6 -50 -12 -9 -8 -11 -8 -8 -2 4
7 0 15 -9 18 -24 9 -31 7 -38 -9z m101 -11 c-3 -3 -12 -4 -19 -1 -8 3 -5 6 6
6 11 1 17 -2 13 -5z"/>
<path d="M3595 1910 c3 -5 12 -10 19 -10 9 0 12 -9 8 -25 -3 -19 0 -25 14 -25
12 0 15 -3 8 -8 -17 -11 -24 -53 -11 -67 7 -6 26 -15 42 -19 16 -4 32 -12 36
-17 3 -6 53 -14 110 -19 103 -8 146 -20 224 -62 48 -26 143 -29 195 -5 l35 15
-69 1 c-71 1 -146 18 -146 33 0 4 -7 8 -15 8 -8 0 -15 4 -15 10 0 12 -52 25
-165 41 -49 7 -93 17 -96 22 -4 5 -12 0 -18 -11 -7 -14 -7 -22 -1 -25 6 -3 5
-4 -2 -3 -7 1 -14 12 -16 24 -2 12 -12 27 -23 32 -10 6 -19 21 -19 34 0 24
-62 86 -87 86 -8 0 -11 -4 -8 -10z"/>
<path d="M4228 1913 c7 -3 16 -2 19 1 4 3 -2 6 -13 5 -11 0 -14 -3 -6 -6z"/>
<path d="M4341 1834 c0 -11 3 -14 6 -6 3 7 2 16 -1 19 -3 4 -6 -2 -5 -13z"/>
<path d="M6675 1813 c-50 -27 -76 -51 -106 -97 -31 -50 -56 -65 -143 -90 -42
-13 -70 -29 -98 -57 -21 -21 -46 -39 -54 -39 -21 0 -83 -62 -67 -67 11 -4 48
12 118 50 42 23 140 65 168 72 25 7 58 36 108 98 17 20 37 37 44 37 12 0 95
91 95 104 0 11 -35 5 -65 -11z"/>
<path d="M4326 1785 c-3 -9 -5 -33 -5 -53 1 -34 2 -33 10 13 8 51 6 68 -5 40z"/>
<path d="M6751 1554 c0 -11 3 -14 6 -6 3 7 2 16 -1 19 -3 4 -6 -2 -5 -13z"/>
<path d="M6760 1511 c0 -6 4 -13 10 -16 6 -3 7 1 4 9 -7 18 -14 21 -14 7z"/>
<path d="M6860 1486 c0 -36 -44 -82 -98 -101 -26 -10 -56 -21 -67 -25 -11 -4
-46 -18 -78 -30 -31 -12 -60 -27 -63 -32 -4 -6 -29 -21 -57 -34 -28 -12 -69
-43 -91 -67 -46 -49 -87 -77 -113 -77 -22 -1 -53 -23 -53 -39 0 -13 32 -15 46
-2 5 5 27 14 48 21 22 7 55 29 75 49 41 41 77 63 100 59 26 -3 89 32 94 53 3
10 13 19 22 19 9 0 29 8 43 18 58 39 80 46 97 32 19 -15 19 -15 72 66 47 72
61 114 38 114 -9 0 -15 -9 -15 -24z"/>
<path d="M6112 1481 c-22 -14 -10 -46 18 -49 37 -3 58 13 44 35 -13 20 -43 27
-62 14z"/>
<path d="M4125 1420 c-22 -11 -45 -20 -53 -20 -7 0 -10 -4 -7 -10 3 -5 -1 -10
-9 -10 -9 0 -16 -6 -16 -12 0 -9 -4 -8 -10 2 -8 13 -10 13 -10 -2 0 -10 -10
-20 -22 -22 -13 -3 -32 -7 -43 -9 -11 -3 -2 -5 21 -6 29 -1 46 5 59 19 10 11
31 20 46 20 21 0 27 4 23 14 -4 10 6 20 30 30 20 8 36 17 36 20 0 9 -2 8 -45
-14z"/>
<path d="M4360 1420 c-40 -4 -50 -8 -37 -14 22 -10 128 1 141 14 11 11 -13 11
-104 0z"/>
<path d="M4203 1398 c-35 -21 -43 -38 -18 -38 8 0 15 7 15 15 0 8 6 15 14 15
14 0 32 18 25 24 -2 2 -19 -6 -36 -16z"/>
<path d="M3911 1395 c-36 -12 -49 -29 -32 -40 6 -3 11 -2 11 3 0 4 23 14 50
21 28 7 50 16 50 21 0 11 -40 9 -79 -5z"/>
<path d="M4140 1370 c0 -5 5 -10 11 -10 5 0 7 5 4 10 -3 6 -8 10 -11 10 -2 0
-4 -4 -4 -10z"/>
<path d="M3610 1360 c0 -5 5 -10 11 -10 5 0 7 5 4 10 -3 6 -8 10 -11 10 -2 0
-4 -4 -4 -10z"/>
<path d="M4100 1350 c0 -5 10 -10 23 -10 18 0 19 2 7 10 -19 13 -30 13 -30 0z"/>
<path d="M3810 1320 c-23 -7 -23 -8 -3 -9 12 -1 25 4 28 9 3 6 5 10 3 9 -2 -1
-14 -5 -28 -9z"/>
<path d="M6186 1255 c-3 -8 -1 -15 4 -15 6 0 10 7 10 15 0 8 -2 15 -4 15 -2 0
-6 -7 -10 -15z"/>
<path d="M6080 1251 c0 -6 4 -13 10 -16 6 -3 7 1 4 9 -7 18 -14 21 -14 7z"/>
<path d="M6260 1250 c0 -5 4 -10 9 -10 6 0 13 5 16 10 3 6 -1 10 -9 10 -9 0
-16 -4 -16 -10z"/>
<path d="M7636 1180 c8 -31 10 -33 24 -28 8 2 4 13 -10 28 l-21 25 7 -25z"/>
<path d="M6028 1161 c-61 -9 -69 -18 -25 -26 37 -7 107 10 107 26 0 10 -10 10
-82 0z"/>
<path d="M6682 1046 c18 -10 41 -13 65 -8 l38 6 -40 7 c-22 5 -51 8 -65 8
l-25 1 27 -14z"/>
<path d="M6550 1013 c-49 -18 -79 -37 -90 -58 -11 -21 -21 -25 -56 -25 -25 0
-46 -6 -51 -13 -4 -8 -33 -22 -63 -32 -30 -10 -62 -27 -72 -37 -9 -10 -21 -18
-26 -18 -13 0 -57 -60 -45 -60 19 -1 -24 -20 -44 -20 -26 0 -27 -7 -13 -44 16
-42 37 -30 70 40 17 37 34 64 37 60 9 -8 43 13 43 27 0 15 132 57 177 57 37 0
99 29 138 66 14 13 31 24 36 24 6 0 20 5 32 12 21 11 21 11 2 19 -23 9 -54 10
-75 2z"/>
<path d="M7638 973 c7 -3 16 -2 19 1 4 3 -2 6 -13 5 -11 0 -14 -3 -6 -6z"/>
<path d="M7612 908 c5 -15 28 -23 28 -10 0 5 -7 13 -16 16 -10 4 -14 1 -12 -6z"/>
<path d="M6350 846 c0 -9 7 -12 20 -9 11 3 20 9 20 14 0 5 -9 9 -20 9 -11 0
-20 -6 -20 -14z"/>
<path d="M7490 611 c0 -5 7 -12 16 -15 24 -9 28 -7 14 9 -14 17 -30 20 -30 6z"/>
<path d="M6541 243 c-13 -3 -25 -13 -28 -22 -2 -10 -20 -23 -39 -30 -37 -13
-67 -57 -47 -69 15 -10 35 -52 24 -52 -5 0 -29 22 -53 48 -23 27 -49 47 -56
44 -22 -7 -13 -38 18 -60 17 -13 30 -30 30 -40 0 -13 -4 -12 -20 8 l-20 25 10
-34 c8 -29 7 -34 -11 -38 -32 -9 -2 -23 47 -23 43 0 64 13 64 42 0 29 31 21
43 -12 8 -21 18 -30 34 -30 13 0 23 6 23 13 0 7 9 30 20 52 11 22 20 47 20 57
0 10 7 18 15 18 9 0 15 -9 15 -25 0 -14 5 -45 12 -70 11 -40 15 -45 41 -45 25
0 28 2 17 15 -15 18 -5 49 13 42 7 -3 13 5 13 20 1 13 14 35 28 48 14 13 26
29 26 35 0 13 -38 71 -55 82 -11 8 -143 8 -184 1z m-21 -186 c0 -5 -4 -5 -10
-2 -5 3 -10 14 -10 23 0 15 2 15 10 2 5 -8 10 -19 10 -23z"/>
<path d="M6756 242 c-2 -4 2 -16 10 -27 8 -10 14 -14 14 -8 0 6 3 18 6 27 6
16 -20 24 -30 8z"/>
<path d="M9920 80 l0 -80 160 0 160 0 0 80 0 80 -160 0 -160 0 0 -80z"/>
</g>
</svg>
